# xmcd
#
# Track frame offsets: 
#        150
#        13894
#        29193
#        44397
#        54914
#        65753
#        79556
#        94614
#        109440
#        130655
#        145666
#        160533
#
# Disc length: 2552 seconds
#
# Revision: 0
# Processed by: cddbd v1.5.2PL0 Copyright (c) Steve Scherf et al.
# Submitted via: ExactAudioCopy v0.95a5
#
DISCID=9d09f60c
DTITLE=Look What I Did - Atlas Drugged
DYEAR=2010
DGENRE=Acoustic
TTITLE0=Six Flags Over Jesus
TTITLE1=Fade To Daft
TTITLE2=Jekyll Island Fiat Scratch
TTITLE3=Holding Pattern
TTITLE4=I'm Majoring In Psychology
TTITLE5=My Girlfriend, Leo Strauss
TTITLE6=Serf Sung
TTITLE7=Sh*t $
TTITLE8=Pussy Comitatus
TTITLE9=Quit it
TTITLE10=Haematospermia
TTITLE11=Baby Darwins
EXTD=
EXTT0=
EXTT1=
EXTT2=
EXTT3=
EXTT4=
EXTT5=
EXTT6=
EXTT7=
EXTT8=
EXTT9=
EXTT10=
EXTT11=
PLAYORDER=
